HIERARCHY
ROOT Hips
{
	OFFSET 0.000000 0.000002 32.900002
	CHANNELS 6 Xposition Yposition Zposition Xrotation Yrotation Zrotation
	JOINT RightUpLeg
	{
		OFFSET -4.000000 0.000000 0.000000
		CHANNELS 6 Xposition Yposition Zposition Xrotation Yrotation Zrotation
		JOINT RightLeg
		{
			OFFSET 0.000000 -0.000001 -14.600000
			CHANNELS 6 Xposition Yposition Zposition Xrotation Yrotation Zrotation
			JOINT RightFoot
			{
				OFFSET 0.000000 -0.000001 -14.600000
				CHANNELS 6 Xposition Yposition Zposition Xrotation Yrotation Zrotation
				End Site
				{
					OFFSET 0.000000 -5.040000 -3.700000
				}
			}
		}
	}
	JOINT LeftUpLeg
	{
		OFFSET 4.000000 0.000000 0.000000
		CHANNELS 6 Xposition Yposition Zposition Xrotation Yrotation Zrotation
		JOINT LeftLeg
		{
			OFFSET 0.000000 -0.000001 -14.600000
			CHANNELS 6 Xposition Yposition Zposition Xrotation Yrotation Zrotation
			JOINT LeftFoot
			{
				OFFSET 0.000000 -0.000001 -14.600000
				CHANNELS 6 Xposition Yposition Zposition Xrotation Yrotation Zrotation
				End Site
				{
					OFFSET 0.000000 -5.040000 -3.700000
				}
			}
		}
	}
	JOINT Spine
	{
		OFFSET 0.000000 0.000000 2.534000
		CHANNELS 6 Xposition Yposition Zposition Xrotation Yrotation Zrotation
		JOINT Spine1
		{
			OFFSET 0.000000 0.000000 5.611000
			CHANNELS 6 Xposition Yposition Zposition Xrotation Yrotation Zrotation
			JOINT Spine2
			{
				OFFSET 0.000000 0.000000 3.981998
				CHANNELS 6 Xposition Yposition Zposition Xrotation Yrotation Zrotation
				JOINT Neck
				{
					OFFSET 0.000000 0.000000 5.973000
					CHANNELS 6 Xposition Yposition Zposition Xrotation Yrotation Zrotation
					JOINT Neck1
					{
						OFFSET 0.000000 0.000000 3.049999
						CHANNELS 6 Xposition Yposition Zposition Xrotation Yrotation Zrotation
						JOINT Head
						{
							OFFSET 0.000000 0.000000 3.049999
							CHANNELS 6 Xposition Yposition Zposition Xrotation Yrotation Zrotation
							End Site
							{
								OFFSET 0.000000 0.000001 6.900002
							}
						}
					}
				}
				JOINT RightShoulder
				{
					OFFSET -0.905000 0.000000 4.163002
					CHANNELS 6 Xposition Yposition Zposition Xrotation Yrotation Zrotation
					JOINT RightArm
					{
						OFFSET -5.195002 0.000000 0.000000
						CHANNELS 6 Xposition Yposition Zposition Xrotation Yrotation Zrotation
						JOINT RightForeArm
						{
							OFFSET -10.899999 0.000000 0.000000
							CHANNELS 6 Xposition Yposition Zposition Xrotation Yrotation Zrotation
							JOINT RightHand
							{
								OFFSET -8.200001 0.000000 0.000000
								CHANNELS 6 Xposition Yposition Zposition Xrotation Yrotation Zrotation
								JOINT RightHandThumb1
								{
									OFFSET -0.632000 -0.821000 -0.158001
									CHANNELS 6 Xposition Yposition Zposition Xrotation Yrotation Zrotation
									JOINT RightHandThumb2
									{
										OFFSET -1.263000 0.000000 0.000000
										CHANNELS 6 Xposition Yposition Zposition Xrotation Yrotation Zrotation
										JOINT RightHandThumb3
										{
											OFFSET -0.877001 0.000000 0.000000
											CHANNELS 6 Xposition Yposition Zposition Xrotation Yrotation Zrotation
											End Site
											{
												OFFSET -0.827000 0.000000 0.000000
											}
										}
									}
								}
								JOINT RightInHandIndex
								{
									OFFSET -1.105000 -0.678000 0.174000
									CHANNELS 6 Xposition Yposition Zposition Xrotation Yrotation Zrotation
									JOINT RightHandIndex1
									{
										OFFSET -1.789000 -0.343000 -0.030998
										CHANNELS 6 Xposition Yposition Zposition Xrotation Yrotation Zrotation
										JOINT RightHandIndex2
										{
											OFFSET -1.240999 0.000000 0.000000
											CHANNELS 6 Xposition Yposition Zposition Xrotation Yrotation Zrotation
											JOINT RightHandIndex3
											{
												OFFSET -0.704000 0.000000 0.000000
												CHANNELS 6 Xposition Yposition Zposition Xrotation Yrotation Zrotation
												End Site
												{
													OFFSET -0.618999 0.000000 0.000000
												}
											}
										}
									}
								}
								JOINT RightInHandMiddle
								{
									OFFSET -1.160000 -0.260000 0.176998
									CHANNELS 6 Xposition Yposition Zposition Xrotation Yrotation Zrotation
									JOINT RightHandMiddle1
									{
										OFFSET -1.774000 -0.108000 -0.028999
										CHANNELS 6 Xposition Yposition Zposition Xrotation Yrotation Zrotation
										JOINT RightHandMiddle2
										{
											OFFSET -1.354000 0.000000 0.000000
											CHANNELS 6 Xposition Yposition Zposition Xrotation Yrotation Zrotation
											JOINT RightHandMiddle3
											{
												OFFSET -0.849001 0.000000 0.000000
												CHANNELS 6 Xposition Yposition Zposition Xrotation Yrotation Zrotation
												End Site
												{
													OFFSET -0.677000 0.000000 0.000000
												}
											}
										}
									}
								}
								JOINT RightInHandRing
								{
									OFFSET -1.153999 0.044000 0.183998
									CHANNELS 6 Xposition Yposition Zposition Xrotation Yrotation Zrotation
									JOINT RightHandRing1
									{
										OFFSET -1.589001 0.164000 -0.007999
										CHANNELS 6 Xposition Yposition Zposition Xrotation Yrotation Zrotation
										JOINT RightHandRing2
										{
											OFFSET -1.180000 0.000000 0.000000
											CHANNELS 6 Xposition Yposition Zposition Xrotation Yrotation Zrotation
											JOINT RightHandRing3
											{
												OFFSET -0.819000 0.000000 0.000000
												CHANNELS 6 Xposition Yposition Zposition Xrotation Yrotation Zrotation
												End Site
												{
													OFFSET -0.636999 0.000000 0.000000
												}
											}
										}
									}
								}
								JOINT RightInHandPinky
								{
									OFFSET -1.084000 0.412000 0.160999
									CHANNELS 6 Xposition Yposition Zposition Xrotation Yrotation Zrotation
									JOINT RightHandPinky1
									{
										OFFSET -1.420000 0.374000 -0.007999
										CHANNELS 6 Xposition Yposition Zposition Xrotation Yrotation Zrotation
										JOINT RightHandPinky2
										{
											OFFSET -0.945000 0.000000 0.000000
											CHANNELS 6 Xposition Yposition Zposition Xrotation Yrotation Zrotation
											JOINT RightHandPinky3
											{
												OFFSET -0.597000 0.000000 0.000000
												CHANNELS 6 Xposition Yposition Zposition Xrotation Yrotation Zrotation
												End Site
												{
													OFFSET -0.563999 0.000000 0.000000
												}
											}
										}
									}
								}
							}
						}
					}
				}
				JOINT LeftShoulder
				{
					OFFSET 0.905000 0.000000 4.163002
					CHANNELS 6 Xposition Yposition Zposition Xrotation Yrotation Zrotation
					JOINT LeftArm
					{
						OFFSET 5.195002 0.000000 0.000000
						CHANNELS 6 Xposition Yposition Zposition Xrotation Yrotation Zrotation
						JOINT LeftForeArm
						{
							OFFSET 10.899999 0.000000 0.000000
							CHANNELS 6 Xposition Yposition Zposition Xrotation Yrotation Zrotation
							JOINT LeftHand
							{
								OFFSET 8.200001 0.000000 0.000000
								CHANNELS 6 Xposition Yposition Zposition Xrotation Yrotation Zrotation
								JOINT LeftHandThumb1
								{
									OFFSET 0.632000 -0.821000 -0.158001
									CHANNELS 6 Xposition Yposition Zposition Xrotation Yrotation Zrotation
									JOINT LeftHandThumb2
									{
										OFFSET 1.263000 0.000000 0.000000
										CHANNELS 6 Xposition Yposition Zposition Xrotation Yrotation Zrotation
										JOINT LeftHandThumb3
										{
											OFFSET 0.877001 0.000000 0.000000
											CHANNELS 6 Xposition Yposition Zposition Xrotation Yrotation Zrotation
											End Site
											{
												OFFSET 0.827000 0.000000 0.000000
											}
										}
									}
								}
								JOINT LeftInHandIndex
								{
									OFFSET 1.105000 -0.678000 0.174000
									CHANNELS 6 Xposition Yposition Zposition Xrotation Yrotation Zrotation
									JOINT LeftHandIndex1
									{
										OFFSET 1.789000 -0.343000 -0.030998
										CHANNELS 6 Xposition Yposition Zposition Xrotation Yrotation Zrotation
										JOINT LeftHandIndex2
										{
											OFFSET 1.240999 0.000000 0.000000
											CHANNELS 6 Xposition Yposition Zposition Xrotation Yrotation Zrotation
											JOINT LeftHandIndex3
											{
												OFFSET 0.704000 0.000000 0.000000
												CHANNELS 6 Xposition Yposition Zposition Xrotation Yrotation Zrotation
												End Site
												{
													OFFSET 0.618999 0.000000 0.000000
												}
											}
										}
									}
								}
								JOINT LeftInHandMiddle
								{
									OFFSET 1.160000 -0.260000 0.176998
									CHANNELS 6 Xposition Yposition Zposition Xrotation Yrotation Zrotation
									JOINT LeftHandMiddle1
									{
										OFFSET 1.774000 -0.108000 -0.028999
										CHANNELS 6 Xposition Yposition Zposition Xrotation Yrotation Zrotation
										JOINT LeftHandMiddle2
										{
											OFFSET 1.354000 0.000000 0.000000
											CHANNELS 6 Xposition Yposition Zposition Xrotation Yrotation Zrotation
											JOINT LeftHandMiddle3
											{
												OFFSET 0.849001 0.000000 0.000000
												CHANNELS 6 Xposition Yposition Zposition Xrotation Yrotation Zrotation
												End Site
												{
													OFFSET 0.677000 0.000000 0.000000
												}
											}
										}
									}
								}
								JOINT LeftInHandRing
								{
									OFFSET 1.153999 0.044000 0.183998
									CHANNELS 6 Xposition Yposition Zposition Xrotation Yrotation Zrotation
									JOINT LeftHandRing1
									{
										OFFSET 1.589001 0.164000 -0.007999
										CHANNELS 6 Xposition Yposition Zposition Xrotation Yrotation Zrotation
										JOINT LeftHandRing2
										{
											OFFSET 1.180000 0.000000 0.000000
											CHANNELS 6 Xposition Yposition Zposition Xrotation Yrotation Zrotation
											JOINT LeftHandRing3
											{
												OFFSET 0.819000 0.000000 0.000000
												CHANNELS 6 Xposition Yposition Zposition Xrotation Yrotation Zrotation
												End Site
												{
													OFFSET 0.636999 0.000000 0.000000
												}
											}
										}
									}
								}
								JOINT LeftInHandPinky
								{
									OFFSET 1.084000 0.412000 0.160999
									CHANNELS 6 Xposition Yposition Zposition Xrotation Yrotation Zrotation
									JOINT LeftHandPinky1
									{
										OFFSET 1.420000 0.374000 -0.007999
										CHANNELS 6 Xposition Yposition Zposition Xrotation Yrotation Zrotation
										JOINT LeftHandPinky2
										{
											OFFSET 0.945000 0.000000 0.000000
											CHANNELS 6 Xposition Yposition Zposition Xrotation Yrotation Zrotation
											JOINT LeftHandPinky3
											{
												OFFSET 0.597000 0.000000 0.000000
												CHANNELS 6 Xposition Yposition Zposition Xrotation Yrotation Zrotation
												End Site
												{
													OFFSET 0.563999 0.000000 0.000000
												}
											}
										}
									}
								}
							}
						}
					}
				}
			}
		}
	}
}
MOTION
Frames: 4
Frame Time: 0.041667
-0.000000 0.000002 32.900002 -1.130170 -0.064272 2.705800 -4.000000 0.000000 -0.000000 -35.205469 4.038439 4.598877 -0.000001 -0.000002 -14.599996 59.249535 -1.936643 -0.201981 -0.000001 -0.000001 -14.599998 -1.212242 -23.553667 -9.692918 4.000000 -0.000001 -0.000001 -37.042988 -6.807630 -4.453671 0.000001 -0.000005 -14.600001 59.051247 1.711426 -0.196819 0.000001 -0.000001 -14.600000 11.675617 35.614358 -1.616599 0.000000 0.000000 2.533993 4.672364 -8.391085 -1.897224 -0.000001 -0.000000 5.611000 -2.739168 3.669753 4.772024 -0.000000 0.000000 3.981999 7.763067 4.607912 5.846094 0.000000 -0.000001 5.972996 -0.398706 -0.000021 -0.000019 0.000000 -0.000001 3.049999 -0.398754 -0.000010 -0.000008 -0.000000 0.000001 3.050010 -13.340982 1.879743 -8.948777 -0.905000 0.000000 4.163001 0.000042 2.916691 -0.002324 -5.195001 0.000000 -0.000004 28.441335 -53.978722 23.632128 -10.899998 0.000000 0.000001 3.996676 -1.707489 100.011742 -8.199997 -0.000001 -0.000002 -98.215347 -1.541184 -32.429646 -0.632002 -0.821003 -0.158001 -2.004911 5.009905 13.041971 -1.262996 0.000001 -0.000002 -1.722020 4.555898 -2.372198 -0.877001 -0.000000 -0.000009 -3.240109 2.916863 13.411524 -1.105004 -0.677999 0.174004 -0.000001 -0.000001 0.000002 -1.788996 -0.342999 -0.030998 5.143593 -14.279608 3.712996 -1.241001 0.000002 0.000001 1.444245 -0.000054 5.327482 -0.704000 0.000000 0.000006 -0.364896 5.765338 5.684728 -1.159998 -0.259999 0.176994 -0.000001 0.000002 -0.000000 -1.773999 -0.107998 -0.029005 3.251611 -12.018574 0.252121 -1.354000 0.000003 -0.000009 0.455476 -0.007560 5.688443 -0.849000 0.000000 -0.000002 -1.585985 7.418274 5.869260 -1.154003 0.044001 0.183998 -0.000001 -0.000000 0.000001 -1.588997 0.163996 -0.008000 2.126047 -11.264660 -6.016250 -1.180001 -0.000001 0.000000 0.182624 0.000008 5.909050 -0.819002 0.000005 -0.000000 -2.110892 9.770844 6.085350 -1.083998 0.412001 0.160998 -0.000001 -0.000001 0.000002 -1.420002 0.373998 -0.007989 2.299045 -2.707558 -1.794126 -0.945000 0.000003 -0.000000 1.590440 -0.000107 -0.157180 -0.596995 -0.000003 0.000000 1.653144 12.590436 0.449770 0.905000 -0.000001 4.163001 0.001347 -13.627924 0.011064 5.195003 -0.000001 -0.000002 -347.713237 33.472513 315.545150 10.899999 0.000002 -0.000003 0.171071 1.749982 -98.459069 8.200001 0.000002 0.000004 29.130016 18.434349 0.239021 0.632000 -0.820999 -0.157994 -2.999588 -4.741933 -10.880959 1.263000 -0.000002 0.000003 -2.696390 -4.616488 2.393454 0.877000 0.000001 0.000000 -3.768906 -3.494938 -11.102913 1.105004 -0.677998 0.174013 0.000000 0.000001 -0.000001 1.788998 -0.342999 -0.031005 2.784918 6.789980 -2.115626 1.240996 0.000002 0.000004 0.720514 0.005558 -3.341134 0.704002 0.000001 -0.000003 -0.338643 -5.231504 -3.536153 1.159997 -0.259998 0.177007 0.000001 -0.000001 0.000003 1.774001 -0.108001 -0.029003 1.816037 5.559045 -0.152284 1.354000 -0.000006 -0.000007 0.121265 0.007292 -3.555448 0.848998 0.000000 -0.000006 -1.030446 -6.073187 -3.622663 1.154004 0.044001 0.184009 0.000000 0.000000 0.000003 1.589002 0.164001 -0.008003 0.000000 0.000001 0.000000 1.180005 -0.000001 0.000005 1.311139 5.141996 -0.136536 0.819004 0.000001 0.000005 -1.304562 -7.424159 -3.728926 1.084002 0.412000 0.161003 0.000001 -0.000000 -0.000002 1.419994 0.373998 -0.007994 1.300420 0.151880 0.998506 0.944997 -0.000004 0.000006 0.798379 0.000040 -0.053317 0.596999 0.000002 0.000004 0.861114 -9.162171 -0.434647 
0.000000 0.000002 32.900002 -1.107628 -0.954890 2.806430 -4.000000 0.000001 0.000004 -33.313131 3.141312 4.555197 -0.000000 -0.000001 -14.599998 60.792604 -1.963377 -0.377686 -0.000000 -0.000001 -14.599998 -16.110470 -15.274996 -16.328792 4.000000 -0.000001 -0.000009 -37.803649 -7.056394 -4.025346 0.000000 -0.000002 -14.599998 58.123749 1.588991 -0.333700 0.000000 -0.000001 -14.600002 22.432308 39.289550 -9.306561 0.000000 0.000000 2.534004 4.331849 -12.494037 -3.727876 -0.000001 -0.000001 5.611004 -2.715185 5.658444 4.658707 0.000000 0.000000 3.982002 7.731451 6.802308 6.002298 -0.000000 -0.000001 5.973007 -0.398726 -0.000018 -0.000015 0.000000 -0.000000 3.049999 -0.398712 -0.000017 -0.000011 -0.000000 0.000000 3.049995 -13.286063 2.469882 -7.371019 -0.905000 -0.000000 4.163008 0.000039 2.916686 -0.002327 -5.194999 -0.000000 0.000003 28.214746 -52.656145 23.975682 -10.899996 -0.000003 0.000001 4.771548 -1.705383 100.114037 -8.200002 0.000005 -0.000001 -98.570196 -2.006706 -32.665042 -0.632002 -0.821001 -0.158005 -2.015941 5.017565 13.058711 -1.262997 -0.000002 -0.000001 -1.712896 4.548448 -2.372433 -0.877006 0.000003 0.000004 -3.246694 2.921386 13.421229 -1.105001 -0.677998 0.174001 0.000002 0.000002 0.000002 -1.788995 -0.342998 -0.031003 5.140526 -14.259156 3.713561 -1.240998 0.000003 -0.000008 1.445867 0.000007 5.325881 -0.704001 -0.000002 -0.000000 -0.368425 5.784807 5.686350 -1.160001 -0.259998 0.176995 0.000003 0.000000 0.000001 -1.774005 -0.107998 -0.028999 3.249319 -12.001985 0.251521 -1.354001 0.000001 0.000000 0.458364 -0.007567 5.685479 -0.849003 -0.000000 -0.000013 -1.590373 7.441893 5.871378 -1.154004 0.044002 0.183991 0.000002 0.000001 0.000003 -1.588998 0.164000 -0.007997 2.124352 -11.247325 -6.018615 -1.180003 -0.000001 -0.000005 0.179307 0.000037 5.912831 -0.819003 -0.000001 -0.000005 -2.115602 9.795571 6.087794 -1.084000 0.412000 0.160993 0.000002 -0.000001 0.000002 -1.419999 0.373999 -0.007992 2.291424 -2.611855 -1.792725 -0.945003 0.000001 0.000001 1.583244 0.000033 -0.158041 -0.596999 -0.000003 0.000002 1.651141 12.613926 0.449352 0.905000 -0.000000 4.163003 0.001375 -13.721811 0.011149 5.195001 0.000000 0.000003 -345.135278 35.546726 315.101762 10.899994 -0.000001 0.000009 0.665684 1.787148 -95.539484 8.200005 0.000003 0.000005 30.121281 8.887996 -0.894325 0.632003 -0.821002 -0.157995 -3.004275 -4.737931 -10.861217 1.263001 -0.000001 -0.000000 -2.700850 -4.614608 2.393708 0.876998 0.000000 0.000001 -3.770127 -3.497018 -11.082047 1.105003 -0.678001 0.174008 -0.000000 -0.000001 -0.000009 1.788998 -0.342998 -0.031004 2.769748 6.745632 -2.105091 1.240994 0.000000 -0.000004 0.715813 0.005557 -3.325973 0.704002 -0.000001 0.000004 -0.337626 -5.218601 -3.519976 1.159997 -0.260001 0.176998 -0.000000 -0.000001 -0.000003 1.774000 -0.108000 -0.029014 1.806609 5.523882 -0.151541 1.354002 -0.000002 0.000003 0.119517 0.007290 -3.538981 0.849000 -0.000001 0.000003 -1.025558 -6.052814 -3.605662 1.154001 0.043998 0.183998 -0.000001 0.000000 -0.000001 1.589002 0.164000 -0.007988 -0.000000 0.000001 0.000003 1.180000 0.000001 0.000002 1.303934 5.109427 -0.136431 0.819003 -0.000000 0.000001 -1.297998 -7.396453 -3.711174 1.083997 0.411997 0.160999 -0.000001 -0.000001 -0.000005 1.419998 0.374002 -0.007987 1.293504 0.141368 0.993196 0.944999 0.000000 0.000016 0.793259 -0.000028 -0.053970 0.596995 -0.000002 0.000013 0.856256 -9.127941 -0.433498 
0.000000 0.000002 32.900002 -1.048639 -1.679394 2.883266 -4.000000 -0.000000 0.000007 -31.529410 2.305138 4.400375 0.000000 0.000001 -14.599998 60.931844 -1.941020 -0.644703 -0.000000 -0.000002 -14.599998 -25.370231 -6.995131 -20.283893 4.000000 0.000000 0.000003 -38.464323 -7.153392 -3.617407 -0.000001 -0.000000 -14.600003 57.382270 1.495425 -0.432353 -0.000001 -0.000003 -14.600001 32.072977 41.467503 -16.409296 0.000000 0.000000 2.534008 3.874570 -15.955411 -5.302659 0.000001 0.000000 5.611008 -2.691462 7.331427 4.559119 0.000000 0.000000 3.982002 7.700071 8.653031 6.131497 0.000000 -0.000001 5.973003 -0.398024 -0.000027 -0.000016 0.000000 -0.000001 3.049999 -0.398180 0.000001 -0.000009 0.000001 0.000001 3.050003 -13.348832 2.974252 -6.046775 -0.905000 -0.000001 4.163001 0.000046 2.916682 -0.002320 -5.195002 -0.000000 0.000000 27.975282 -51.509581 24.328598 -10.900002 -0.000003 -0.000002 5.373659 -1.702644 100.216524 -8.199999 -0.000005 0.000001 -98.769228 -2.422942 -32.817939 -0.631998 -0.821002 -0.158000 -2.027004 5.025205 13.075438 -1.263006 -0.000001 0.000001 -1.703742 4.541027 -2.372698 -0.877006 0.000004 0.000005 -3.253280 2.925904 13.430976 -1.104996 -0.678001 0.174004 -0.000003 -0.000001 -0.000001 -1.789000 -0.343002 -0.030996 5.137458 -14.238713 3.714133 -1.240998 -0.000001 -0.000006 1.447501 0.000005 5.324285 -0.704000 -0.000001 0.000004 -0.371964 5.804264 5.687998 -1.159998 -0.260001 0.177006 -0.000004 -0.000000 0.000002 -1.774003 -0.108000 -0.028996 3.247022 -11.985399 0.250918 -1.354000 0.000002 -0.000003 0.461250 -0.007557 5.682529 -0.849003 0.000002 -0.000010 -1.594744 7.465469 5.873475 -1.153999 0.043999 0.183998 -0.000003 0.000001 0.000002 -1.589009 0.164001 -0.008001 2.122647 -11.230011 -6.020986 -1.180001 -0.000003 -0.000004 0.176005 -0.000040 5.916596 -0.819000 -0.000001 -0.000004 -2.120328 9.820320 6.090225 -1.083997 0.411997 0.161000 -0.000003 0.000001 -0.000000 -1.420002 0.374003 -0.007995 2.292195 -2.594798 -1.788793 -0.944997 0.000001 0.000004 1.576056 0.000029 -0.158922 -0.597001 0.000003 0.000007 1.649128 12.637357 0.448936 0.905000 0.000001 4.163006 0.001395 -13.815721 0.011223 5.194999 -0.000002 -0.000001 -342.607616 37.094494 313.464429 10.899997 0.000000 0.000001 1.347865 1.856741 -94.002787 8.200004 0.000001 0.000006 30.388014 2.131752 -1.600022 0.632001 -0.820998 -0.158001 -3.008953 -4.733911 -10.841449 1.263003 -0.000002 0.000005 -2.705315 -4.612741 2.393975 0.877002 -0.000002 0.000008 -3.771336 -3.499121 -11.061205 1.105003 -0.677998 0.174004 -0.000000 -0.000001 0.000000 1.789004 -0.342999 -0.030992 2.754591 6.701291 -2.094521 1.240995 0.000001 -0.000000 0.711114 0.005562 -3.310863 0.703998 0.000002 0.000004 -0.336616 -5.205691 -3.503760 1.159999 -0.259999 0.176995 -0.000001 -0.000000 0.000002 1.774000 -0.108002 -0.029001 1.797177 5.488706 -0.150742 1.354002 0.000002 0.000000 0.117760 0.007297 -3.522556 0.849004 -0.000002 -0.000002 -1.020674 -6.032424 -3.588642 1.153999 0.044001 0.183998 -0.000000 -0.000001 0.000004 1.589000 0.164001 -0.007995 -0.000000 -0.000001 0.000004 1.180003 -0.000000 -0.000001 1.296735 5.076885 -0.136297 0.819001 0.000002 0.000005 -1.291442 -7.368733 -3.693438 1.083999 0.412000 0.161000 -0.000001 -0.000001 0.000004 1.419999 0.373999 -0.007985 1.286590 0.130847 0.987914 0.945003 -0.000000 0.000010 0.788155 0.000139 -0.054633 0.597001 -0.000001 0.000002 0.851389 -9.093699 -0.432419 
0.000000 0.000002 32.900002 -0.984055 -2.209558 2.945209 -4.000000 0.000001 -0.000001 -30.571561 1.935988 4.440890 -0.000001 -0.000004 -14.599999 60.986684 -1.933506 -0.845658 0.000001 -0.000001 -14.599998 -30.100265 -1.831858 -22.305231 4.000000 0.000000 -0.000001 -38.992095 -7.121652 -3.270885 0.000001 -0.000001 -14.600001 57.011674 1.405018 -0.536617 -0.000001 -0.000003 -14.600000 39.556802 42.463692 -22.024879 0.000000 0.000000 2.534001 3.422380 -18.565803 -6.526915 0.000001 0.000000 5.610996 -2.671927 8.591937 4.484096 -0.000000 0.000000 3.982006 7.672498 10.053333 6.230651 0.000000 -0.000000 5.973003 -0.398507 -0.000018 -0.000012 0.000000 -0.000001 3.050007 -0.398481 -0.000021 -0.000016 0.000000 -0.000001 3.049999 -13.456759 3.354178 -5.061522 -0.905000 -0.000001 4.162997 0.000041 2.916688 -0.002319 -5.195000 0.000001 0.000000 27.748608 -50.610503 24.634110 -10.899998 -0.000002 0.000001 5.792550 -1.701291 100.272805 -8.199998 -0.000002 -0.000008 -98.973607 -2.851235 -32.977079 -0.631996 -0.821002 -0.158000 -2.004096 5.009341 13.040740 -1.263001 -0.000001 0.000004 -1.694348 4.533394 -2.372945 -0.877007 -0.000003 0.000001 -3.260065 2.930516 13.440990 -1.104998 -0.678001 0.174007 0.000000 -0.000001 0.000001 -1.788999 -0.343002 -0.031002 5.143823 -14.281100 3.712934 -1.241001 -0.000005 -0.000005 1.449196 -0.000040 5.322643 -0.704001 0.000001 -0.000004 -0.375601 5.824381 5.689681 -1.159996 -0.260000 0.176997 0.000001 -0.000000 -0.000000 -1.773998 -0.108003 -0.029004 3.244667 -11.968251 0.250321 -1.353997 0.000001 -0.000014 0.464207 -0.007569 5.679503 -0.849000 0.000002 -0.000004 -1.599250 7.489778 5.875634 -1.153999 0.044000 0.183997 -0.000001 -0.000000 -0.000000 -1.588998 0.164003 -0.008001 2.120909 -11.212127 -6.023411 -1.180001 0.000002 0.000001 0.172584 0.000014 5.920480 -0.819002 0.000003 0.000001 -2.125195 9.845824 6.092719 -1.084000 0.412000 0.161007 0.000001 0.000000 0.000002 -1.419999 0.373999 -0.007992 2.292989 -2.577222 -1.784754 -0.945001 -0.000002 0.000013 1.568645 0.000037 -0.159815 -0.597002 0.000000 0.000008 1.647056 12.661541 0.448498 0.905001 -0.000000 4.162998 0.001412 -13.912474 0.011306 5.195003 0.000001 0.000001 -338.091331 38.350952 306.714754 10.900000 -0.000002 0.000000 3.003065 1.821678 -95.022008 8.199999 0.000008 -0.000006 30.354775 -0.080937 -1.866301 0.632004 -0.821000 -0.158008 -3.013780 -4.729792 -10.821060 1.263000 0.000002 0.000002 -2.709915 -4.610808 2.394237 0.877000 0.000001 -0.000004 -3.772570 -3.501295 -11.039704 1.105004 -0.678001 0.173996 -0.000000 0.000001 -0.000003 1.788998 -0.343000 -0.030997 2.738999 6.655584 -2.083692 1.240998 -0.000000 -0.000005 0.706272 0.005547 -3.295304 0.704000 -0.000001 -0.000003 -0.335583 -5.192394 -3.487086 1.160002 -0.260001 0.176991 -0.000000 0.000000 -0.000002 1.774004 -0.108000 -0.029008 1.787471 5.452463 -0.149982 1.353999 -0.000002 0.000004 0.115964 0.007300 -3.505581 0.849004 -0.000000 -0.000007 -1.015664 -6.011424 -3.571127 1.154004 0.043999 0.183990 0.000000 0.000000 0.000001 1.589000 0.164000 -0.008007 0.000000 -0.000000 0.000002 1.180001 0.000000 0.000006 1.289327 5.043340 -0.136200 0.819001 0.000001 0.000011 -1.284745 -7.340199 -3.675137 1.084000 0.411997 0.160995 0.000000 0.000000 0.000001 1.420001 0.374000 -0.007992 1.279463 0.120005 0.982442 0.945001 0.000001 0.000012 0.782880 -0.000037 -0.055294 0.596997 0.000001 0.000001 0.846373 -9.058436 -0.431182 
